<svg width="18" height="18" viewBox="0 0 18 18" fill="none" xmlns="http://www.w3.org/2000/svg">
<path d="M16.418 7.41797H13.7461V3.72656C13.7461 2.27268 12.5633 1.08984 11.1094 1.08984H4.78125C4.49002 1.08984 4.25391 1.32595 4.25391 1.61719V7.41797H1.58203C0.709699 7.41797 0 8.12767 0 9V12.1641C0 13.0364 0.709699 13.7461 1.58203 13.7461H4.25391V16.3828C4.25391 16.674 4.49002 16.9102 4.78125 16.9102H13.2188C13.51 16.9102 13.7461 16.674 13.7461 16.3828V13.7461H16.418C17.2903 13.7461 18 13.0364 18 12.1641V9C18 8.12767 17.2903 7.41797 16.418 7.41797ZM12.6007 3.19922H11.6367V2.23523C12.0855 2.39439 12.4416 2.75048 12.6007 3.19922ZM5.30859 2.14453H10.582V3.72656C10.582 4.0178 10.8181 4.25391 11.1094 4.25391H12.6914V7.41797H5.30859V2.14453ZM12.6914 15.8555H5.30859V12.6914H12.6914V15.8555ZM16.9453 12.1641C16.9453 12.4548 16.7087 12.6914 16.418 12.6914H13.7461V12.1641C13.7461 11.8728 13.51 11.6367 13.2188 11.6367H4.78125C4.49002 11.6367 4.25391 11.8728 4.25391 12.1641V12.6914H1.58203C1.29125 12.6914 1.05469 12.4548 1.05469 12.1641V9C1.05469 8.70922 1.29125 8.47266 1.58203 8.47266H16.418C16.7087 8.47266 16.9453 8.70922 16.9453 9V12.1641Z" fill="#EB3D00"/>
<path d="M13.2188 10.582C13.51 10.582 13.7461 10.3459 13.7461 10.0547C13.7461 9.76344 13.51 9.52734 13.2188 9.52734C12.9275 9.52734 12.6914 9.76344 12.6914 10.0547C12.6914 10.3459 12.9275 10.582 13.2188 10.582Z" fill="#EB3D00"/>
<path d="M11.1094 10.582C11.4006 10.582 11.6367 10.3459 11.6367 10.0547C11.6367 9.76344 11.4006 9.52734 11.1094 9.52734C10.8181 9.52734 10.582 9.76344 10.582 10.0547C10.582 10.3459 10.8181 10.582 11.1094 10.582Z" fill="#EB3D00"/>
<path d="M11.1094 13.7461H6.89062C6.59939 13.7461 6.36328 13.9822 6.36328 14.2734C6.36328 14.5647 6.59939 14.8008 6.89062 14.8008H11.1094C11.4006 14.8008 11.6367 14.5647 11.6367 14.2734C11.6367 13.9822 11.4006 13.7461 11.1094 13.7461Z" fill="#EB3D00"/>
</svg>
